<svg viewBox="-0.5 -0.5 24 9" xmlns="http://www.w3.org/2000/svg">
  <path d="M22.9 5.79v1.37h-4.32V.38h1.57v5.4h2.75zM9.8 0L5.97 2.95C5.577 1.48 4.3.4 2.73.4H-.02v6.78h2.75c1.57 0 2.95-1.08 3.24-2.55L9.8 7.58l3.83-2.95v2.55h4.32V5.8H15.1V.4h-1.57v2.55L9.9 5.9l-.785-.688 1.77-1.38 1.87-1.47-1.08-.883-3.63 2.85-.785-.688 3.63-2.75L9.81.008h-.002zM1.45 1.77h1.18c.245 0 .486.055.707.156s.424.249.596.434c.172.184.312.404.41.652.098.249.152.526.152.82 0 .27-.048.533-.139.777-.09.244-.223.468-.389.658s-.364.346-.59.455-.478.17-.748.17h-1.18v-4.12z" fill="#0ea5e9"/>
</svg>
